{"title":"The Shawshank Redemption[x264][AC3(5.1)]Nordic_Sub.mkv","uid":5225921,"size":2327287626,"categoryP":"video","categoryS":"movies","magnet":"?xt=urn:btih:6f53e2af834d87825fac7a697c2f45341c756fd8&amp;dn=The+Shawshank+Redemption%5Bx264%5D%5BAC3%285.1%29%5DNordic_Sub.mkv&amp;tr=udp%3A%2F%2Ftracker.openbittorrent.com%3A80&amp;tr=udp%3A%2F%2Fopen.demonii.com%3A1337&amp;tr=udp%3A%2F%2Ftracker.coppersurfer.tk%3A6969&amp;tr=udp%3A%2F%2Fexodus.desync.com%3A6969","seeders":0,"leechers":0,"uploader":"Zen_Bud","files":-1,"time":1261123212,"description":"General\nComplete name                    : The Shawshank Redemption.mkv\nFormat                           : Matroska\nFile size                        : 2.17 GiB\nDuration                         : 2h 16mn\nOverall bit rate                 : 2 270 Kbps\n\n\nVideo\nID                               : 1\nFormat                           : AVC\n\nDuration                         : 2h 16mn\nBit rate                         : 1 997 Kbps\nNominal bit rate                 : 2 022 Kbps\nWidth                            : 704 pixels\nHeight                           : 546 pixels\nDisplay aspect ratio             : 16/9\nFrame rate                       : 25.000 fps\nResolution                       : 24 bits\nColorimetry                      : 4:2:0\nScan type                        : Progressive\nBits/(Pixel*Frame)               : 0.208\nStream size                      : 1.91 GiB (88%)\nWriting library                  : x264 core 79\n aq=1:1.00\n\nAudio\nID                               : 2\nFormat                           : AC-3\nFormat/Info                      : Audio Coding 3\nCodec ID                         : A_AC3\nDuration                         : 2h 16mn\nBit rate mode                    : Constant\nBit rate                         : 224 Kbps\nChannel(s)                       : 6 channels\nChannel positions                : Front: L C R, Surround: L R, LFE\nSampling rate                    : 48.0 KHz\nStream size                      : 219 MiB (10%)\nLanguage                         : English\n\nText #1\nLanguage                         : Danish\n\nText #2\nLanguage                         : Finnish\n\nText #3\nLanguage                         : Norwegian\n\nText #4\nLanguage                         : Swedish\n","torrent":{"xt":"urn:btih:6f53e2af834d87825fac7a697c2f45341c756fd8","amp;dn":"The+Shawshank+Redemption%5Bx264%5D%5BAC3%285.1%29%5DNordic_Sub.mkv","amp;tr":["udp%3A%2F%2Ftracker.openbittorrent.com%3A80","udp%3A%2F%2Fopen.demonii.com%3A1337","udp%3A%2F%2Ftracker.coppersurfer.tk%3A6969","udp%3A%2F%2Fexodus.desync.com%3A6969"],"infoHash":"6f53e2af834d87825fac7a697c2f45341c756fd8","infoHashBuffer":{"type":"Buffer","data":[111,83,226,175,131,77,135,130,95,172,122,105,124,47,69,52,28,117,111,216]},"announce":[],"urlList":[]}}